Coordinates
version=1
nRows=12
nColumns=24
inDegrees=yes

Units are S.I. units (second, meters, Newtons, ...)
Angles are in degrees.

endheader
time	pelvis_tilt	pelvis_list	pelvis_rotation	pelvis_tx	pelvis_ty	pelvis_tz	hip_flexion_r	hip_adduction_r	hip_rotation_r	knee_angle_r	ankle_angle_r	subtalar_angle_r	mtp_angle_r	hip_flexion_l	hip_adduction_l	hip_rotation_l	knee_angle_l	ankle_angle_l	subtalar_angle_l	mtp_angle_l	lumbar_extension	lumbar_bending	lumbar_rotation
      1.46633333	      1.72006895	      4.97295408	     -2.97665931	      0.31614166	      1.02641837	      0.30270818	     17.77244012	     -8.46462433	     -6.09202485	    -72.05147574	     -2.65019421	     -5.45512041	      3.83523759	      8.16317271	      9.49907182	      3.13035219	    -14.72892880	      5.54296178	    -11.82378477	     -0.98846233	     -5.66537213	     -6.36310043	      4.89137084
      1.47050000	      1.71903785	      4.84852180	     -2.91584499	      0.32084062	      1.02722559	      0.30231254	     18.35597156	     -8.30974690	     -6.14102564	    -71.78803734	     -2.20025792	     -5.32418647	      3.79971209	      7.69812563	      9.40188911	      3.24935755	    -14.40758041	      5.61448532	    -11.80549955	     -0.99701530	     -5.74876370	     -6.19751463	      4.75223101
      1.47466667	      1.74334067	      4.71200676	     -2.84476173	      0.32552658	      1.02806369	      0.30190666	     18.89015991	     -8.14382186	     -6.20502045	    -71.45963379	     -1.78609865	     -5.21857937	      3.77149601	      7.20226121	      9.29258166	      3.37895355	    -14.07919811	      5.68632614	    -11.78051646	     -1.00636364	     -5.86490793	     -6.01488183	      4.61352812
      1.47883333	      1.75644507	      4.57420504	     -2.76006782	      0.33018624	      1.02884352	      0.30149394	     19.42187063	     -7.97421553	     -6.27972231	    -71.08175835	     -1.37999081	     -5.17191053	      3.75991931	      6.72975658	      9.17853715	      3.50061111	    -13.77076272	      5.75378954	    -11.74126309	     -1.01274220	     -5.97829611	     -5.83299063	      4.50508210
      1.48300000	      1.79234743	      4.44982729	     -2.66812452	      0.33486402	      1.02962484	      0.30105513	     19.91171196	     -7.83145234	     -6.36565385	    -70.65291211	     -0.99169204	     -5.05892304	      3.73603451	      6.21755238	      9.08297526	      3.65323487	    -13.42993249	      5.82615390	    -11.72893164	     -1.02649203	     -6.09768789	     -5.66698379	      4.29706142
      1.48716667	      1.81288039	      4.32418010	     -2.56471843	      0.33950983	      1.03034182	      0.30061394	     20.40438533	     -7.68450213	     -6.45890007	    -70.17413519	     -0.62168895	     -5.01500136	      3.71441565	      5.73378071	      8.98222802	      3.80119234	    -13.10823031	      5.88874142	    -11.70919000	     -1.04201409	     -6.21580638	     -5.50034591	      4.12474458
      1.49133333	      1.83188736	      4.17910319	     -2.45061736	      0.34414956	      1.03104006	      0.30017008	     20.87415918	     -7.51402428	     -6.56590058	    -69.63040618	     -0.26854626	     -5.01373647	      3.70476766	      5.25912613	      8.85669929	      3.94447980	    -12.80458096	      5.96018869	    -11.66299094	     -1.05143491	     -6.33078350	     -5.30634404	      3.99933847
      1.49550000	      1.84608046	      4.06709524	     -2.33440835	      0.34881534	      1.03167914	      0.29971602	     21.33879214	     -7.38752532	     -6.67442972	    -69.04867853	      0.08131733	     -5.03203470	      3.70071935	      4.78687252	      8.76438488	      4.07017794	    -12.48894602	      6.03128461	    -11.61427799	     -1.05835058	     -6.40657478	     -5.14830787	      3.87207954
      1.49966667	      1.91215164	      3.93981460	     -2.20987789	      0.35344043	      1.03236588	      0.29925851	     21.72412844	     -7.24487243	     -6.78768272	    -68.40236615	      0.39152436	     -5.01705460	      3.68115935	      4.25245292	      8.65927708	      4.25584638	    -12.15943487	      6.09945787	    -11.60194530	     -1.07750928	     -6.59723447	     -4.98544865	      3.58872699
      1.50383333	      1.89645101	      3.83687190	     -2.08029073	      0.35808592	      1.03287629	      0.29879923	     22.19059885	     -7.12618697	     -6.89945413	    -67.72345291	      0.72356322	     -5.08855415	      3.67919585	      3.82646146	      8.57076786	      4.37920892	    -11.86537215	      6.16728814	    -11.54143049	     -1.08291982	     -6.63484482	     -4.82985436	      3.50365134
      1.50800000	      1.93907033	      3.69686159	     -1.93121106	      0.36269434	      1.03347419	      0.29832802	     22.55704664	     -6.96982748	     -7.03256972	    -66.96144216	      1.01323134	     -5.13722652	      3.67011674	      3.33873919	      8.44426921	      4.56029574	    -11.57789059	      6.25044193	    -11.50220012	     -1.09321575	     -6.80128855	     -4.65566176	      3.30770686
      1.51216667	      1.94007577	      3.59254431	     -1.78978983	      0.36733171	      1.03393277	      0.29787277	     22.96426550	     -6.84935485	     -7.14894247	    -66.17152378	      1.30164511	     -5.22915434	      3.66089229	      2.89744820	      8.35118391	      4.71836991	    -11.28760698	      6.32500577	    -11.46012434	     -1.10310992	     -6.88321003	     -4.51071762	      3.11852804
